<?xml version="1.0" encoding="UTF-8"?>
<svg width="32px" height="60px" viewBox="0 0 32 60" version="1.1" xmlns="http://www.w3.org/2000/svg" xmlns:xlink="http://www.w3.org/1999/xlink">
    <!-- Generator: Sketch 40.3 (33839) - http://www.bohemiancoding.com/sketch -->
    <title>Group 4 Copy 17</title>
    <desc>Created with Sketch.</desc>
    <defs></defs>
    <g id="Symbols" stroke="none" stroke-width="1" fill="none" fill-rule="evenodd">
        <g id="Headers-/-Header#1" transform="translate(-50.000000, -9.000000)" fill="#D3D3D3">
            <g id="Group-4" transform="translate(50.000000, 9.000000)">
                <g>
                    <path d="M11.6756757,8.69565217 C11.6756757,8.69565217 9.51351351,7.82608696 8.21621622,9.56521739 L8.21621622,33.0434783 C8.21621622,33.78708 8.42934443,38.8014529 7.78378378,43.9130435 C6.91951182,50.7564042 5.24880217,58.1349061 6.48648649,59.1304348 C6.92852656,59.1304348 7.62625193,60.0975856 8.21621622,58.6956522 C11.0891013,51.8688094 15.2184161,29.4621641 17.7297297,22.6086957 C20.7567568,14.3478261 23.3513514,8.26086957 26.3783784,3.47826087 C26.3783784,3.04347826 24.2162162,-2.60869565 22.0540541,2.17391304 C19.8918919,6.95652174 16.9018742,13.1703901 15.1351351,19.5652174 C12.972973,27.3913043 12.5405405,32.6086957 11.6756757,33.0434783 C10.3959005,33.6868435 10.8108108,26.9565217 11.2432432,20" id="Path-2"></path>
                    <path d="M4.32432432,43.4782609 C2.16216216,45.2173913 -0.864864865,38.2608696 0.864864865,34.7826087 C1.5851427,33.3342239 13.8678325,16.8815448 23.3513514,16.0869565 C28.5405405,15.6521739 29.8378378,16.0869565 31.1351351,17.826087 C35.027027,23.0434783 22.9189189,34.3478261 22.9189189,34.3478261 C22.9189189,34.3478261 21.0138427,35.1928737 21.6216216,33.9130435 C22.015803,33.0829961 24.6628969,30.4988181 25.5135135,29.1304348 C27.6756757,25.6521739 29.8570151,18.4147718 25.9459459,18.6956522 C19.4594595,19.1304348 12.5405405,22.173913 2.59459459,34.3478261 C0.864864865,38.6956522 6.48648649,41.7391304 4.32432432,43.4782609 Z" id="Path-3"></path>
                    <path d="M13.4054054,34.3478261 C13.4054054,34.3478261 21.6216216,33.0434783 24.2162162,33.4782609 C26.8108108,33.9130435 30.7027027,35.6521739 26.8108108,43.0434783 C23.6695604,50.3076199 15.2800578,53.2126862 10.9246796,54.2585409 C9.28433471,54.6524362 8.21621622,54.7826087 8.21621622,54.7826087 C8.21621622,54.7826087 6.48648649,54.7826087 6.91891892,54.3478261 C7.35135135,53.9130435 5.20287409,53.8632055 8.64864865,53.4782609 C16.4324324,52.6086957 28.6004811,40.2733529 25.5135135,37.3913043 C19.4594595,31.7391304 12.972973,38.6956522 12.5405405,39.5652174 C12.1081081,40.4347826 11.2432432,46.0869565 11.2432432,46.0869565 C11.2432432,46.0869565 13.5551036,44.8469758 14.7027027,44.7826087 C16.724405,44.6692144 18.1736817,45.4959597 15.7598184,46.4734268 C15.3691442,46.631626 14.8772784,46.3589906 14.2702703,46.5217391 C7.78378378,48.2608696 9.9600477,50.6792013 9.08108108,52.6086957 C8.67010407,53.5108662 8.64864865,54.3478261 8.64864865,54.3478261 C8.64864865,54.3478261 5.62162162,55.6521739 4.75675676,54.7826087 C3.89189189,53.9130435 3.89189189,51.3043478 5.18918919,50.4347826 C6.48648649,49.5652174 8.64864865,47.3913043 8.64864865,47.3913043 C8.64864865,47.3913043 10.3783784,35.2173913 10.8108108,34.7826087" id="Path-4"></path>
                    <path d="M6.48648649,53.4782609 C6.48648649,53.4782609 5.62162162,53.9130435 5.62162162,53.0434783 C5.62162162,52.173913 6.91891892,51.3043478 6.91891892,51.3043478" id="Path-5"></path>
                </g>
            </g>
        </g>
    </g>
</svg>