<svg width="151px" height="64px" viewBox="0 0 151 64" version="1.1" xmlns="http://www.w3.org/2000/svg" xmlns:xlink="http://www.w3.org/1999/xlink">
    <defs></defs>
    <g id="Symbols" stroke="none" stroke-width="1" fill="none" fill-rule="evenodd">
        <g id="logo" transform="translate(-65.000000, -19.000000)" fill="#FFFFFF">
            <g id="Group-2" transform="translate(65.000000, 19.000000)">
                <path d="M1.44315895,18.9090909 C1.44315895,18.9090909 3.56991952,15.7355372 5.08903421,16.2644628 C6.60814889,16.7933884 5.84859155,22.6115702 5.84859155,22.6115702 C5.84859155,22.6115702 4.10160966,31.4710744 4.32947686,34.9090909 C4.55734406,38.3471074 5.24094567,46.4793388 5.62072435,46.7438017 C6.00050302,47.0082645 7.2917505,44.8264463 7.36770624,44.0330579 C7.44366197,43.2396694 7.2917505,42.6446281 7.89939638,40.9917355 C8.50704225,39.338843 10.9376258,32.3305785 11.4693159,31.4049587 C12.001006,30.4793388 12.6086519,28.5619835 12.9124748,27.8347107 C13.2162978,27.107438 20.4320926,7.47107438 23.4703219,8.46280992 C26.5085513,9.45454545 18.2293763,24.7933884 17.6217304,25.5867769 C17.0140845,26.3801653 15.8747485,28.4297521 15.4949698,30.0165289 C15.1151911,31.6033058 11.6971831,38.9421488 11.3174044,40.1322314 C10.9376258,41.322314 9.41851107,46.0826446 9.19064386,46.9421488 C8.96277666,47.8016529 7.97535211,49.8512397 7.82344064,50.7768595 C7.67152918,51.7024793 7.44366197,54.7438017 7.13983903,55.2727273 C6.8360161,55.8016529 6.91197183,62.2809917 5.46881288,62.8099174 C4.02565392,63.338843 1.13933602,64.661157 0.303822938,63.5371901 C-0.531690141,62.4132231 2.88631791,57.785124 2.58249497,56.5289256 C2.27867203,55.2727273 2.2027163,51.4380165 1.82293763,49.3884298 C1.44315895,47.338843 -0.151911469,38.2809917 0.0759557344,34.2479339 C0.303822938,30.214876 0.987424547,27.0413223 1.06338028,25.785124 C1.13933602,24.5289256 1.44315895,18.9090909 1.44315895,18.9090909 Z" id="Path-2"></path>
                <path d="M18.0367976,35.1495034 C16.8215058,35.8106604 15.7436842,38.0514932 15.5302583,38.1908257 C15.2264354,38.3891728 14.6947453,38.4552885 14.6187895,38.9842141 C14.5428338,39.5131397 12.492029,45.7280157 16.1379042,46.1908257 C19.7837795,46.6536356 24.6449465,35.4139662 21.0750269,33.9594207 C20.0128618,33.5266469 19.2520893,34.4883463 18.0367976,35.1495034 Z M17.8520644,38.1077956 C17.8520644,38.1077956 17.6241972,38.1739113 17.6241972,38.6367212 C17.6241972,39.0995311 17.8520644,40.4879609 17.700153,40.7524237 C17.5482415,41.0168865 16.8646399,42.5375476 17.3203743,42.9342419 C17.7761087,43.3309361 18.0039759,43.3309361 18.0039759,43.3309361 C18.0039759,43.3309361 17.9280202,42.5375476 18.3077988,42.2730848 C18.6875775,42.008622 20.2826479,39.7606881 19.6750021,38.6367212 C19.0673562,37.5127543 17.8520644,38.1077956 17.8520644,38.1077956 Z" id="Combined-Shape"></path>
                <path d="M43.1021899,35.1495034 C41.8868982,35.8106604 40.8090766,38.0514932 40.5956507,38.1908257 C40.2918277,38.3891728 39.7601376,38.4552885 39.6841819,38.9842141 C39.6082261,39.5131397 37.5574213,45.7280157 41.2032966,46.1908257 C44.8491718,46.6536356 49.7103388,35.4139662 46.1404193,33.9594207 C45.0782541,33.5266469 44.3174817,34.4883463 43.1021899,35.1495034 Z M42.9174568,38.1077956 C42.9174568,38.1077956 42.6895896,38.1739113 42.6895896,38.6367212 C42.6895896,39.0995311 42.9174568,40.4879609 42.7655453,40.7524237 C42.6136338,41.0168865 41.9300322,42.5375476 42.3857666,42.9342419 C42.841501,43.3309361 43.0693683,43.3309361 43.0693683,43.3309361 C43.0693683,43.3309361 42.9934125,42.5375476 43.3731912,42.2730848 C43.7529699,42.008622 45.3480403,39.7606881 44.7403944,38.6367212 C44.1327485,37.5127543 42.9174568,38.1077956 42.9174568,38.1077956 Z" id="Combined-Shape-Copy"></path>
                <path d="M51.9130551,35.1495034 C50.6977634,35.8106604 49.6199418,38.0514932 49.4065159,38.1908257 C49.1026929,38.3891728 48.5710028,38.4552885 48.4950471,38.9842141 C48.4190913,39.5131397 46.3682865,45.7280157 50.0141618,46.1908257 C53.660037,46.6536356 58.521204,35.4139662 54.9512845,33.9594207 C53.8891193,33.5266469 53.1283469,34.4883463 51.9130551,35.1495034 Z M51.728322,38.1077956 C51.728322,38.1077956 51.5004548,38.1739113 51.5004548,38.6367212 C51.5004548,39.0995311 51.728322,40.4879609 51.5764105,40.7524237 C51.424499,41.0168865 50.7408974,42.5375476 51.1966318,42.9342419 C51.6523662,43.3309361 51.8802334,43.3309361 51.8802334,43.3309361 C51.8802334,43.3309361 51.8042777,42.5375476 52.1840564,42.2730848 C52.5638351,42.008622 54.1589055,39.7606881 53.5512596,38.6367212 C52.9436137,37.5127543 51.728322,38.1077956 51.728322,38.1077956 Z" id="Combined-Shape-Copy-2"></path>
                <path d="M25.7842825,35.1495034 C24.5689907,35.8106604 23.4911691,38.0514932 23.2777432,38.1908257 C22.9739203,38.3891728 22.4422302,38.4552885 22.3662744,38.9842141 C22.2903187,39.5131397 20.2395139,45.7280157 23.8853891,46.1908257 C27.5312644,46.6536356 32.3924314,35.4139662 28.8225119,33.9594207 C27.7603467,33.5266469 26.9995742,34.4883463 25.7842825,35.1495034 Z M25.5995493,38.240027 C25.5995493,38.240027 25.3716821,38.3061427 25.3716821,38.7689526 C25.3716821,39.2317625 25.5995493,40.6201923 25.4476379,40.8846551 C25.2957264,41.1491179 24.6121248,42.6697791 25.0678592,43.0664733 C25.5235936,43.4631675 25.7514608,43.4631675 25.7514608,43.4631675 C25.7514608,43.4631675 25.6755051,42.6697791 26.0552837,42.4053162 C26.4350624,42.1408534 28.0301328,39.8929195 27.422487,38.7689526 C26.8148411,37.6449857 25.5995493,38.240027 25.5995493,38.240027 Z" id="Combined-Shape"></path>
                <path d="M29.0910463,39.9338843 C29.0910463,39.9338843 30.9347371,38.5538518 32.5850101,37.2892562 C33.4574015,36.6207472 34.4228323,35.9286446 34.7117706,35.768595 C35.5472837,35.3057851 36.5347082,35.107438 36.9904427,34.1818182 C37.4461771,33.2561983 38.2816901,29.2892562 39.1172032,28.4297521 C39.9527163,27.5702479 40.6363179,25.785124 40.6363179,25.785124 C40.6363179,25.785124 41.6237425,25.5867769 41.8516097,25.3884298 C42.0794769,25.1900826 43.0669014,24.3966942 43.8264588,24.7933884 C44.5860161,25.1900826 41.6237425,30.6115702 41.6237425,30.6115702 C41.6237425,30.6115702 39.0412475,34.7768595 38.6614688,35.7024793 C38.2816901,36.6280992 35.2434608,43.1735537 36.5347082,47.338843 C37.8259557,51.5041322 38.889336,51.0413223 38.889336,51.0413223 C38.889336,51.0413223 40.6363179,52.1652893 39.1172032,53.0247934 C37.5980885,53.8842975 35.167505,49.5867769 34.8636821,48.1322314 C34.5598592,46.677686 34.6358149,41.8512397 34.331992,41.6528926 C34.028169,41.4545455 30.9139839,45.553719 29.6986922,43.768595 C29.1534327,42.9676716 29.5020369,42.6305815 29.7746479,42.0495868 C30.1096411,41.3356418 30.4582495,40.4628099 30.4582495,40.4628099 L28.2555332,41.7190083 L29.0910463,39.9338843 Z M34.8636821,37.6859504 C34.8636821,37.6859504 32.8128773,39.2066116 32.3571429,40.4628099 C31.9014085,41.7190083 32.1292757,41.8512397 32.1292757,41.8512397 C32.1292757,41.8512397 34.7877264,39.6694215 35.0915493,39.2066116 C35.3953722,38.7438017 35.7751509,37.553719 35.471328,37.3553719 C35.167505,37.1570248 34.8636821,37.6859504 34.8636821,37.6859504 Z" id="Combined-Shape"></path>
                <path d="M57.5744467,32.5289256 C57.5744467,32.5289256 58.637827,31.1404959 58.334004,30.5454545 C58.0301811,29.9504132 54.9919517,26.3801653 55.2198189,25.0578512 C55.4476861,23.7355372 59.7012072,16.0661157 63.1192153,13.2231405 C66.5372233,10.3801653 80.2092555,-1.98347107 89.0960765,4.16528926 C97.9828974,10.3140496 82.7917505,20.4958678 82.7917505,20.4958678 C82.7917505,20.4958678 79.9054326,19.1735537 76.1076459,19.9008264 C72.3098592,20.6280992 72.1579477,20.9586777 72.1579477,20.9586777 C72.1579477,20.9586777 73.221328,16.1983471 72.9934608,15.6694215 C72.7655936,15.1404959 72.0060362,14.9421488 71.8541247,15.0082645 C71.7022133,15.0743802 69.1197183,16.7272727 68.7399396,17.6528926 C68.360161,18.5785124 67.9803823,22.9421488 67.9803823,22.9421488 C67.9803823,22.9421488 63.3470825,26.6446281 63.1192153,27.768595 C62.8913481,28.892562 62.8153924,29.9504132 63.498994,30.214876 C64.1825956,30.4793388 65.3978873,30.214876 65.6257545,30.8760331 C65.8536217,31.5371901 63.7268612,38.6115702 63.5749497,38.8099174 C63.4230382,39.0082645 59.6252515,41.9173554 58.7897384,43.8347107 C57.9542254,45.7520661 57.6504024,46.8760331 58.4099598,47.4710744 C59.1695171,48.0661157 61.0684105,48.5950413 61.0684105,48.5950413 C61.0684105,48.5950413 60.4607646,50.7768595 60.5367203,51.2396694 C60.6126761,51.7024793 60.8405433,52.9586777 61.5241449,53.0909091 C62.2077465,53.2231405 63.498994,52.231405 63.8787726,51.0413223 C64.2585513,49.8512397 65.2459759,45.9504132 65.2459759,45.9504132 C65.2459759,45.9504132 74.2847082,45.0247934 79.8294769,41.0578512 C85.3742455,37.0909091 90.2354125,33.4545455 89.7796781,26.5123967 C88.7162978,22.677686 83.7032193,20.892562 83.7032193,20.892562 C83.7032193,20.892562 100.717304,6.08264463 91.1468813,1.19008264 C81.5764588,-3.70247934 65.8536217,7.9338843 61.5241449,12.0330579 C57.194668,16.1322314 51.8777666,23.7355372 52.2575453,26.7107438 C52.6373239,29.6859504 54.9919517,33.5867769 56.2831992,33.6528926 L57.5744467,32.5289256 Z M66.5372233,41.1239669 L65.777666,44.6942149 C65.777666,44.6942149 73.9808853,43.5702479 78.3863179,40.661157 C82.7917505,37.7520661 86.4376258,34.1818182 87.3490946,32.0661157 C88.2605634,29.9504132 88.1846076,26.5785124 85.9059356,24.7272727 C83.6272636,22.8760331 80.2092555,23.0082645 80.2092555,23.0082645 C80.2092555,23.0082645 78.7660966,24.1322314 78.2344064,24.3305785 C77.7027163,24.5289256 71.5503018,27.3057851 70.4869215,27.5041322 C69.4235412,27.7024793 68.2082495,35.4380165 68.2082495,35.4380165 C68.2082495,35.4380165 73.8289738,32.7272727 74.8163984,33.785124 C75.8038229,34.8429752 73.3732394,36.892562 72.9934608,37.0247934 C72.6136821,37.1570248 68.5880282,39.6694215 67.9803823,40.0661157 C67.3727364,40.4628099 66.5372233,41.1239669 66.5372233,41.1239669 Z M77.1710262,23.6033058 C77.1710262,23.6033058 76.1076459,24.3305785 74.360664,24.9256198 C72.6136821,25.5206612 71.1705231,26.2479339 71.0945674,26.0495868 C71.0186117,25.8512397 73.8289738,24.5289256 74.4366197,24.3966942 C75.0442656,24.2644628 77.1710262,23.6033058 77.1710262,23.6033058 Z M62.8913481,42.446281 C62.8913481,42.446281 60.7645875,45.2892562 61.1443662,45.4876033 C61.5241449,45.6859504 62.4356137,45.0909091 62.8153924,44.7603306 C63.195171,44.4297521 63.498994,43.8347107 63.498994,43.8347107 L62.8913481,42.446281 Z" id="Combined-Shape"></path>
                <path d="M88.8682093,34.8747789 C88.8682093,34.8747789 92.5900402,31.6351095 93.3495976,29.2549442 C94.1091549,26.8747789 92.7419517,27.1392417 93.1976861,26.5442004 C93.6534205,25.9491591 95.4763581,24.4946136 96.084004,24.7590765 C96.6916499,25.0235393 96.2359155,26.4780847 96.5397384,26.6764318 C96.8435614,26.8747789 99.1981891,27.535936 98.8184105,29.3871756 C98.4386318,31.2384153 96.387827,33.5524649 96.6916499,35.6681674 C96.9954728,37.7838698 97.3752515,37.4532913 97.3752515,37.4532913 C97.3752515,37.4532913 95.5523139,39.7012252 94.4889336,38.9078368 C93.4255533,38.1144484 93.8812877,35.4698203 94.4889336,34.4780847 C95.0965795,33.4863492 95.9320926,31.1061839 95.8561368,30.4450269 C95.7801811,29.7838698 95.0965795,29.2549442 95.0965795,29.2549442 C95.0965795,29.2549442 93.4255533,31.6351095 92.7419517,32.4946136 C92.0583501,33.3541178 90.1594567,35.6681674 89.6277666,35.6020517 C89.0960765,35.535936 88.8682093,34.8747789 88.8682093,34.8747789 Z" id="Path-11"></path>
                <path d="M127.453722,34.8747789 C127.453722,34.8747789 131.175553,31.6351095 131.935111,29.2549442 C132.694668,26.8747789 131.327465,27.1392417 131.783199,26.5442004 C132.238934,25.9491591 134.061871,24.4946136 134.669517,24.7590765 C135.277163,25.0235393 134.821429,26.4780847 135.125252,26.6764318 C135.429074,26.8747789 137.783702,27.535936 137.403924,29.3871756 C137.024145,31.2384153 134.97334,33.5524649 135.277163,35.6681674 C135.580986,37.7838698 135.960765,37.4532913 135.960765,37.4532913 C135.960765,37.4532913 134.137827,39.7012252 133.074447,38.9078368 C132.011066,38.1144484 132.466801,35.4698203 133.074447,34.4780847 C133.682093,33.4863492 134.517606,31.1061839 134.44165,30.4450269 C134.365694,29.7838698 133.682093,29.2549442 133.682093,29.2549442 C133.682093,29.2549442 132.011066,31.6351095 131.327465,32.4946136 C130.643863,33.3541178 128.74497,35.6681674 128.21328,35.6020517 C127.68159,35.535936 127.453722,34.8747789 127.453722,34.8747789 Z" id="Path-11-Copy"></path>
                <path d="M101.895111,29.6276123 C101.895111,29.6276123 98.629014,32.0077776 98.4771025,33.8590173 C98.325191,35.7102569 98.5530582,39.1482735 100.451952,39.2143892 C102.350845,39.2805049 107.363923,35.6441412 107.212012,34.3218272 C107.0601,32.9995131 105.085251,34.3218272 105.085251,34.3218272 C105.085251,34.3218272 103.945915,36.5697611 103.110402,36.7019925 C102.274889,36.8342239 102.198933,36.7681082 101.743199,36.1730668 C101.287465,35.5780255 101.667243,34.7846371 101.667243,34.7846371 C101.667243,34.7846371 104.425702,33.0640924 105.844809,31.2143892 C106.964292,29.7552235 106.952522,28.1475987 106.148632,27.7102569 C104.325694,26.7185214 101.895111,29.6276123 101.895111,29.6276123 Z M101.743199,31.7433148 C101.667243,32.3383561 101.667243,32.801166 102.122978,32.801166 C102.578712,32.801166 103.566137,32.140009 103.794004,30.9499263 C104.021871,29.7598437 104.021871,29.7598437 103.718048,29.8920751 C103.414225,30.0243065 102.047022,30.9499263 101.895111,31.2143892 C101.743199,31.478852 101.819155,31.1482735 101.743199,31.7433148 Z" id="Combined-Shape"></path>
                <path d="M124.226096,29.6276123 C124.226096,29.6276123 120.96,32.0077776 120.808088,33.8590173 C120.656177,35.7102569 120.884044,39.1482735 122.782938,39.2143892 C124.681831,39.2805049 129.694909,35.6441412 129.542998,34.3218272 C129.391086,32.9995131 127.416237,34.3218272 127.416237,34.3218272 C127.416237,34.3218272 126.276901,36.5697611 125.441388,36.7019925 C124.605875,36.8342239 124.529919,36.7681082 124.074185,36.1730668 C123.618451,35.5780255 123.998229,34.7846371 123.998229,34.7846371 C123.998229,34.7846371 126.756688,33.0640924 128.175795,31.2143892 C129.295278,29.7552235 129.283508,28.1475987 128.479618,27.7102569 C126.65668,26.7185214 124.226096,29.6276123 124.226096,29.6276123 Z M124.074185,31.7433148 C123.998229,32.3383561 123.998229,32.801166 124.453964,32.801166 C124.909698,32.801166 125.897123,32.140009 126.12499,30.9499263 C126.352857,29.7598437 126.352857,29.7598437 126.049034,29.8920751 C125.745211,30.0243065 124.378008,30.9499263 124.226096,31.2143892 C124.074185,31.478852 124.150141,31.1482735 124.074185,31.7433148 Z" id="Combined-Shape-Copy-3"></path>
                <path d="M108.312877,26.5785124 C108.312877,26.5785124 108.312877,28.9586777 108.388833,29.7520661 C108.464789,30.5454545 108.920523,30.9421488 108.844567,31.8016529 C108.768612,32.661157 108.844567,34.3140496 108.692656,34.5123967 C108.540744,34.7107438 108.464789,34.6446281 108.388833,35.768595 C108.312877,36.892562 108.312877,37.6859504 109.14839,37.4214876 C109.983903,37.1570248 111.047284,36.4297521 111.275151,36.0330579 C111.503018,35.6363636 112.034708,34.3801653 112.034708,34.3801653 C112.034708,34.3801653 112.870221,36.1652893 113.933602,36.231405 C114.996982,36.2975207 116.440141,35.3719008 116.440141,35.3719008 C116.440141,35.3719008 118.339034,33.6528926 119.174547,32.661157 C120.01006,31.6694215 122.288732,29.1570248 122.820423,28.892562 C123.352113,28.6280992 125.099095,28.1652893 125.251006,27.9669421 C125.402918,27.768595 126.010563,25.785124 125.326962,25.5867769 C124.64336,25.3884298 122.592555,26.1818182 121.453219,27.2396694 C120.313883,28.2975207 117.35161,32.1322314 117.047787,32.4628099 C116.743964,32.7933884 116.364185,33.5206612 115.832495,33.322314 C115.300805,33.1239669 115.148893,31.2727273 115.376761,30.6115702 C115.604628,29.9504132 116.668008,26.5785124 115.680584,26.3140496 C114.693159,26.0495868 113.098089,28.231405 112.870221,28.892562 C112.642354,29.553719 112.566398,30.3471074 112.338531,30.6115702 C112.110664,30.8760331 111.730885,31.1404959 111.730885,31.1404959 C111.730885,31.1404959 112.338531,25.785124 111.123239,24.5950413 C109.907948,23.4049587 108.920523,23.1404959 108.08501,23.5371901 C107.249497,23.9338843 107.173541,24.1322314 106.110161,24.3305785 C105.046781,24.5289256 104.363179,24.3305785 104.439135,24.7272727 C104.515091,25.1239669 107.02163,25.322314 107.55332,25.785124" id="Path-14"></path>
                <path d="M138.771127,32.1322314 C138.771127,32.1322314 138.239437,34.5785124 138.087525,34.8429752 C137.935614,35.107438 137.631791,36.4297521 139.07495,37.0247934 C140.518109,37.6198347 144.163984,33.5867769 144.163984,33.5867769 C144.163984,33.5867769 144.467807,35.5702479 144.012072,37.3553719 C143.556338,39.1404959 142.720825,42.3140496 141.885312,43.3719008 C141.049799,44.4297521 133.454225,52.3636364 132.466801,54.5454545 C131.479376,56.7272727 129.504527,60.0991736 131.023642,61.6859504 C132.542757,63.2727273 136.112676,59.5702479 135.808853,59.4380165 C135.50503,59.3057851 132.998491,61.4214876 132.542757,60.4958678 C132.087022,59.5702479 132.238934,57.5206612 132.770624,56.1983471 C133.302314,54.8760331 139.986419,46.0826446 140.745976,46.4793388 C141.505533,46.8760331 139.530684,53.0909091 138.239437,55.0743802 C136.948189,57.0578512 135.656942,57.7190083 136.416499,58.2479339 C137.176056,58.7768595 138.847082,55.9338843 139.302817,54.8760331 C139.758551,53.8181818 142.113179,46.7438017 143.480382,44.4958678 C144.847586,42.2479339 144.847586,41.6528926 145.83501,40.7272727 C146.822435,39.8016529 150.316398,36.3636364 150.316398,36.3636364 C150.316398,36.3636364 151.151911,35.5041322 150.772133,34.9090909 C150.392354,34.3140496 148.949195,35.6363636 148.949195,35.6363636 C148.949195,35.6363636 145.986922,39.0082645 145.910966,38.6115702 C145.83501,38.214876 147.202213,34.1157025 147.657948,32.9917355 C148.113682,31.8677686 148.721328,30.6115702 149.177062,29.9504132 C149.632797,29.2892562 150.012575,28.231405 149.177062,27.9669421 C148.341549,27.7024793 146.3667,29.9504132 145.683099,30.4793388 C144.999497,31.0082645 141.429577,35.2396694 141.125755,34.9752066 C140.821932,34.7107438 141.049799,33.8512397 141.429577,32.4628099 C141.809356,31.0743802 142.720825,28.892562 142.568913,28.4958678 C142.417002,28.0991736 141.809356,27.6363636 140.973843,28.0330579 C140.13833,28.4297521 139.226861,28.892562 139.07495,29.4876033 C138.923038,30.0826446 138.695171,30.214876 138.771127,30.8760331" id="Path-15"></path>
            </g>
        </g>
    </g>
</svg>
